HIERARCHY
ROOT root     
{
	OFFSET 0.0000 0.0000 0.0000
	CHANNELS 6 Xposition Yposition Zposition Zrotation Yrotation Xrotation
	JOINT pelvis   
	{
		OFFSET 0.0000 0.0000 0.0000
		CHANNELS 3 Zrotation Yrotation Xrotation
		JOINT thorax   
		{
			OFFSET 0.0000 23.0750 -5.0000
			CHANNELS 3 Zrotation Yrotation Xrotation
			JOINT rclavicle
			{
				OFFSET 0.0000 28.0009 0.0000
				CHANNELS 3 Zrotation Yrotation Xrotation
				JOINT rhumerus 
				{
					OFFSET -18.5725 5.5939 0.0000
					CHANNELS 3 Zrotation Yrotation Xrotation
					JOINT rradius  
					{
						OFFSET -24.8459 0.0000 0.0000
						CHANNELS 3 Zrotation Yrotation Xrotation
						JOINT rhand    
						{
							OFFSET -24.5477 0.0000 0.0000
							CHANNELS 3 Zrotation Yrotation Xrotation
							End Site
							{
								OFFSET -8.1826 0.0000 0.0000
							}
						}
					}
				}
			}
			JOINT lclavicle
			{
				OFFSET 0.0000 28.0009 0.0000
				CHANNELS 3 Zrotation Yrotation Xrotation
				JOINT lhumerus 
				{
					OFFSET 18.5725 5.5939 0.0000
					CHANNELS 3 Zrotation Yrotation Xrotation
					JOINT lradius  
					{
						OFFSET 24.8459 0.0000 0.0000
						CHANNELS 3 Zrotation Yrotation Xrotation
						JOINT lhand    
						{
							OFFSET 24.5477 0.0000 0.0000
							CHANNELS 3 Zrotation Yrotation Xrotation
							End Site
							{
								OFFSET 8.1826 0.0000 0.0000
							}
						}
					}
				}
			}
			JOINT head     
			{
				OFFSET 0.0000 35.2030 0.0000
				CHANNELS 3 Zrotation Yrotation Xrotation
				End Site
				{
					OFFSET 0.0000 11.7343 0.0000
				}
			}
		}
		JOINT rfemur   
		{
			OFFSET -8.2817 0.0000 0.0000
			CHANNELS 3 Zrotation Yrotation Xrotation
			JOINT rtibia   
			{
				OFFSET 0.0000 -43.3627 0.0000
				CHANNELS 3 Zrotation Yrotation Xrotation
				JOINT rfoot    
				{
					OFFSET 0.0000 -38.2947 0.0000
					CHANNELS 3 Zrotation Yrotation Xrotation
					JOINT rtoes    
					{
						OFFSET 0.0000 0.0000 16.6054
						CHANNELS 3 Zrotation Yrotation Xrotation
						End Site
						{
							OFFSET 0.0000 0.0000 5.5351
						}
					}
				}
			}
		}
		JOINT lfemur   
		{
			OFFSET 8.2817 0.0000 0.0000
			CHANNELS 3 Zrotation Yrotation Xrotation
			JOINT ltibia   
			{
				OFFSET 0.0000 -43.3627 0.0000
				CHANNELS 3 Zrotation Yrotation Xrotation
				JOINT lfoot    
				{
					OFFSET 0.0000 -38.2947 0.0000
					CHANNELS 3 Zrotation Yrotation Xrotation
					JOINT ltoes    
					{
						OFFSET 0.0000 0.0000 16.6054
						CHANNELS 3 Zrotation Yrotation Xrotation
						End Site
						{
							OFFSET 0.0000 0.0000 5.5351
						}
					}
				}
			}
		}
	}
}
MOTION
Frames: 19
Frame Time: 0.008333
55.1498 89.8678 -92.2411 -12.6884 -85.1038 34.7143 0.0000 -0.0000 0.0000 4.1983 -18.4948 -3.7699 22.8584 -16.8473 0.0000 41.2812 -31.3367 27.1204 -180.0000 78.4790 -180.0000 -8.3832 14.6923 -1.0827 -20.1453 12.6955 -0.0000 -47.9621 6.5872 24.6110 180.0000 -58.6940 180.0000 -0.2731 -0.3122 -0.0024 -1.7358 7.4577 -12.9522 -2.9555 -0.5967 -36.5891 -0.0000 -0.0000 21.5046 0.0227 -5.3130 12.4547 -1.1490 -0.0000 -71.2850 -0.2465 3.7983 -2.1306 -0.0000 -0.0000 19.6564 -0.0082 4.9326 24.1992 2.0261 -0.0000 -59.6859
53.5908 90.0143 -92.4299 -11.6811 -85.0949 33.6401 0.0000 -0.0000 0.0000 4.0984 -18.5859 -3.9194 22.7636 -16.9747 -0.0000 41.4414 -31.9005 26.7575 -180.0000 77.6640 180.0000 -7.8765 14.8279 -1.0265 -19.8046 12.6612 -0.0000 -47.7508 7.1674 25.1731 180.0000 -58.3590 180.0000 -0.5803 -0.2026 -0.0023 -1.6865 7.5552 -12.7282 -3.1990 -0.2200 -36.2495 -0.0000 -0.0000 18.6789 0.0232 -4.6083 12.9713 -1.0365 0.0000 -72.0082 -0.1084 4.3226 -1.7567 -0.0000 -0.0000 20.3306 -0.0082 6.0725 24.2933 2.5061 0.0000 -56.6945
52.0326 90.0876 -92.6110 -10.2342 -85.1026 32.1037 0.0000 -0.0000 0.0000 3.9126 -18.6664 -4.0315 22.7584 -17.0709 0.0000 41.6094 -32.3819 26.3403 -180.0000 76.9250 -180.0000 -7.4234 14.8792 -0.9707 -19.4965 12.6568 0.0000 -47.5331 7.7089 25.7375 180.0000 -58.1010 180.0000 -0.8548 -0.1024 -0.0021 -1.5836 7.6171 -12.5400 -3.3853 -0.0192 -35.9900 -0.0000 -0.0000 16.2838 0.0236 -3.8491 13.3539 -0.8903 0.0000 -72.6670 -0.0216 4.7778 -1.4458 -0.0000 -0.0000 21.2349 -0.0082 7.3500 24.0162 3.0052 0.0000 -53.6758
50.4727 90.0905 -92.7904 -8.5946 -85.1164 30.3457 0.0000 -0.0000 0.0000 3.6671 -18.7314 -4.0969 22.8336 -17.1369 0.0000 41.7927 -32.7665 25.8742 -180.0000 76.2740 -180.0000 -7.0455 14.8485 -0.9192 -19.2258 12.6824 0.0000 -47.3141 8.2048 26.3008 180.0000 -57.9310 180.0000 -1.0786 -0.0167 -0.0020 -1.4384 7.6412 -12.3852 -3.4747 0.0164 -35.7914 -0.0000 -0.0000 14.3137 0.0241 -3.0837 13.6478 -0.7283 0.0000 -73.2785 0.0445 5.1695 -1.1889 -0.0000 -0.0000 22.3594 -0.0082 8.6773 23.4370 3.4737 -0.0000 -50.7369
48.9073 90.0230 -92.9657 -6.6966 -85.1319 28.2811 0.0000 -0.0000 0.0000 3.3527 -18.7877 -4.0935 22.9752 -17.1756 -0.0000 41.9997 -33.0387 25.3794 -180.0000 75.7240 -180.0000 -6.7633 14.7482 -0.8763 -18.9831 12.7288 -0.0000 -47.1091 8.6657 26.8548 -180.0000 -57.8510 180.0000 -1.2406 0.0502 -0.0019 -1.2593 7.6286 -12.2611 -3.4346 -0.1645 -35.6450 -0.0000 -0.0000 12.8142 0.0246 -2.2860 13.8611 -0.5479 0.0000 -73.8667 0.0822 5.4544 -0.9505 -0.0000 -0.0000 23.6621 -0.0082 10.0169 22.6539 3.8919 -0.0000 -48.0277
47.3386 89.8876 -93.1504 -5.0359 -85.1431 26.4197 0.0000 -0.0000 0.0000 3.0252 -18.8166 -4.0411 23.1673 -17.1905 -0.0000 42.2337 -33.2001 24.8615 -180.0000 75.2700 -180.0000 -6.5624 14.5998 -0.8416 -18.7765 12.7966 -0.0000 -46.9195 9.0923 27.3983 180.0000 -57.8580 180.0000 -1.3373 0.1009 -0.0018 -1.0673 7.5806 -12.1614 -3.2781 -0.4243 -35.5253 -0.0000 -0.0000 11.7110 0.0250 -1.6102 14.0741 -0.3917 0.0000 -74.4085 0.1457 5.6855 -0.7583 -0.0000 -0.0000 25.1620 -0.0082 11.2630 21.7324 4.2173 -0.0000 -45.6480
45.7646 89.6830 -93.3397 -3.4872 -85.1529 24.6254 0.0000 -0.0000 0.0000 2.6720 -18.8232 -3.9296 23.3919 -17.1857 -0.0000 42.5023 -33.2484 24.3391 -180.0000 74.9050 -180.0000 -6.4305 14.4307 -0.8150 -18.5960 12.8725 -0.0000 -46.7584 9.5070 27.9191 180.0000 -57.9380 180.0000 -1.3778 0.1369 -0.0019 -0.8737 7.5024 -12.0837 -3.0063 -0.7913 -35.4357 -0.0000 -0.0000 11.0493 0.0255 -1.0259 14.2730 -0.2530 0.0000 -74.8627 0.2153 5.8285 -0.5874 -0.0000 -0.0000 26.8206 -0.0082 12.4054 20.7675 4.4597 0.0000 -43.7160
44.1880 89.4096 -93.5397 -2.2959 -85.1632 23.1569 0.0000 -0.0000 0.0000 2.3266 -18.7972 -3.7784 23.6301 -17.1678 -0.0000 42.8053 -33.1870 23.8266 -180.0000 74.6190 180.0000 -6.3397 14.2684 -0.7943 -18.4477 12.9535 0.0000 -46.6260 9.9188 28.4097 180.0000 -58.0790 180.0000 -1.3794 0.1640 -0.0021 -0.6963 7.4004 -12.0259 -2.6538 -1.1651 -35.3676 -0.0000 -0.0000 10.7900 0.0260 -0.6237 14.4832 -0.1560 -0.0000 -75.1832 0.3146 5.9113 -0.4558 -0.0000 -0.0000 28.6396 -0.0082 13.3974 19.8217 4.6176 0.0000 -42.2897
42.6121 89.0667 -93.7513 -1.5587 -85.1787 22.1218 0.0000 -0.0000 0.0000 2.0080 -18.7333 -3.6051 23.8659 -17.1424 -0.0000 43.1403 -33.0216 23.3361 -180.0000 74.3970 180.0000 -6.2581 14.1385 -0.7768 -18.3377 13.0345 0.0000 -46.5218 10.3383 28.8582 180.0000 -58.2640 180.0000 -1.3686 0.1878 -0.0024 -0.5480 7.2815 -11.9880 -2.2511 -1.4900 -35.3297 -0.0000 -0.0000 10.9303 0.0264 -0.4334 14.6863 -0.1099 0.0000 -75.3079 0.4485 5.9475 -0.3761 -0.0000 -0.0000 30.6109 -0.0082 14.2215 18.9492 4.7048 0.0000 -41.4025
41.0403 88.6540 -93.9770 -1.4383 -85.2016 21.6962 0.0000 -0.0000 0.0000 1.7450 -18.6271 -3.4293 24.0869 -17.1096 -0.0000 43.5026 -32.7634 22.8711 -180.0000 74.2300 -180.0000 -6.1538 14.0594 -0.7595 -18.2790 13.1108 -0.0000 -46.4422 10.7723 29.2499 -180.0000 -58.4830 180.0000 -1.3778 0.2123 -0.0028 -0.4412 7.1538 -11.9725 -1.8237 -1.7058 -35.3300 -0.0000 -0.0000 11.4597 0.0269 -0.4779 14.8482 -0.1225 -0.0000 -75.1793 0.6314 5.9572 -0.3642 -0.0000 -0.0000 32.7317 -0.0082 14.8649 18.1816 4.7344 -0.0000 -41.0225
39.4801 88.1713 -94.2135 -1.8635 -85.2410 21.8331 0.0000 -0.0000 0.0000 1.5423 -18.4713 -3.2832 24.2872 -17.0834 -0.0000 43.8863 -32.4077 22.4358 -180.0000 74.1150 -180.0000 -5.9986 14.0418 -0.7394 -18.2827 13.1899 -0.0000 -46.3758 11.2062 29.5793 180.0000 -58.7320 180.0000 -1.4376 0.2456 -0.0034 -0.3779 7.0224 -11.9807 -1.3906 -1.8064 -35.4200 -0.0000 -0.0000 12.4220 0.0274 -0.7091 14.8904 -0.1822 0.0000 -74.7434 0.8487 5.9537 -0.4473 -0.0000 -0.0000 34.9928 -0.0082 15.3376 17.5417 4.7257 -0.0000 -41.1324
37.9344 87.6198 -94.4651 -3.1259 -85.2900 22.8356 0.0000 -0.0000 0.0000 1.4400 -18.2645 -3.1807 24.4676 -17.0484 0.0000 44.2816 -31.9768 22.0129 -180.0000 74.0510 -180.0000 -5.7713 14.0829 -0.7135 -18.3696 13.2640 0.0000 -46.3188 11.6416 29.8260 180.0000 -59.0140 180.0000 -1.5776 0.2856 -0.0043 -0.3648 6.8938 -12.0182 -0.9550 -1.7428 -35.6017 -0.0000 -0.0000 13.7939 0.0278 -1.1269 14.7557 -0.2870 -0.0000 -73.9855 1.1308 5.9596 -0.6387 -0.0000 -0.0000 37.3964 -0.0082 15.6343 17.0136 4.6812 0.0000 -41.5654
36.4091 87.0017 -94.7315 -5.3220 -85.3447 24.8158 0.0000 -0.0000 0.0000 1.4545 -18.0016 -3.1438 24.6354 -16.9994 -0.0000 44.6794 -31.4785 21.5854 -180.0000 74.0470 -180.0000 -5.4634 14.1699 -0.6796 -18.5530 13.3351 -0.0000 -46.2660 12.0627 29.9814 180.0000 -59.3460 180.0000 -1.8135 0.3327 -0.0053 -0.3986 6.7712 -12.0863 -0.5134 -1.5136 -35.9096 -0.0000 -0.0000 15.5925 0.0283 -1.6777 14.3637 -0.4163 0.0000 -72.9100 1.4830 5.9884 -0.9582 -0.0000 -0.0000 39.9378 -0.0082 15.7689 16.5706 4.6044 0.0000 -42.1705
34.9093 86.3195 -95.0049 -8.2197 -85.3989 27.5568 0.0000 -0.0000 0.0000 1.5673 -17.6874 -3.1855 24.8045 -16.9377 -0.0000 45.0714 -30.9064 21.1411 -180.0000 74.1290 -180.0000 -5.0842 14.2808 -0.6373 -18.8376 13.4111 0.0000 -46.2124 12.4436 30.0447 180.0000 -59.7550 180.0000 -2.1452 0.3874 -0.0073 -0.4680 6.6557 -12.1848 -0.0552 -1.1952 -36.3935 -0.0000 -0.0000 17.8732 0.0288 -2.2393 13.6170 -0.5275 -0.0000 -71.5345 1.8751 6.0248 -1.4160 -0.0000 -0.0000 42.5985 -0.0082 15.7799 16.1806 4.5027 -0.0000 -42.7897
33.4372 85.5787 -95.2873 -11.9788 -85.4374 31.2221 0.0000 -0.0000 0.0000 1.7941 -17.3176 -3.3114 24.9925 -16.8414 -0.0000 45.4486 -30.2769 20.6518 -180.0000 74.3170 180.0000 -4.6556 14.3862 -0.5879 -19.2264 13.4850 0.0000 -46.1668 12.7778 30.0095 -180.0000 -60.2770 180.0000 -2.5556 0.4431 -0.0104 -0.5661 6.5476 -12.3101 0.4251 -0.7717 -37.0454 -0.0000 -0.0000 20.5894 0.0292 -2.8001 12.4886 -0.6060 0.0000 -69.9186 2.3243 6.0797 -2.0169 -0.0000 -0.0000 45.3727 -0.0082 15.6827 15.7855 4.3676 -0.0000 -43.2378
31.9949 84.7862 -95.5728 -16.3529 -85.4476 35.5682 0.0000 -0.0000 0.0000 2.1127 -16.8970 -3.5205 25.2207 -16.6992 0.0000 45.8021 -29.5874 20.1040 -180.0000 74.6430 -180.0000 -4.2164 14.4545 -0.5349 -19.7111 13.5567 -0.0000 -46.1372 13.0527 29.8805 180.0000 -60.9540 180.0000 -3.0078 0.4951 -0.0138 -0.6798 6.4464 -12.4551 0.9288 -0.2929 -37.8659 -0.0000 -0.0000 23.7151 0.0297 -3.3019 10.9576 -0.6283 0.0000 -68.1220 2.8076 6.1354 -2.7591 -0.0000 -0.0000 48.2405 -0.0082 15.5162 15.3320 4.1984 0.0000 -43.3674
30.5826 83.9520 -95.8570 -21.1168 -85.4190 40.3653 0.0000 -0.0000 0.0000 2.5018 -16.4280 -3.8012 25.5110 -16.4982 -0.0000 46.1208 -28.8309 19.4900 -180.0000 75.1380 180.0000 -3.8153 14.4570 -0.4841 -20.2802 13.6229 -0.0000 -46.1345 13.2623 29.6640 180.0000 -61.8260 -180.0000 -3.4493 0.5394 -0.0162 -0.7988 6.3517 -12.6111 1.4518 0.2161 -38.8221 -0.0000 -0.0000 27.1705 0.0302 -3.7287 9.0522 -0.5875 0.0000 -66.2352 3.3090 6.1777 -3.6314 -0.0000 -0.0000 51.1771 -0.0082 15.3171 14.7723 3.9948 -0.0000 -43.1212
29.1985 83.0887 -96.1350 -26.0148 -85.3495 45.3443 0.0000 -0.0000 0.0000 2.9331 -15.9111 -4.1312 25.8813 -16.2246 0.0000 46.3956 -27.9965 18.8127 -180.0000 75.8350 180.0000 -3.5048 14.3739 -0.4421 -20.9110 13.6793 0.0000 -46.1804 13.4072 29.3696 180.0000 -62.9390 180.0000 -3.8174 0.5652 -0.0176 -0.9148 6.2635 -12.7682 1.9852 0.7361 -39.8581 -0.0000 -0.0000 30.8432 0.0306 -4.0827 6.8343 -0.4866 -0.0000 -64.3854 3.8096 6.1941 -4.6127 -0.0000 -0.0000 54.1527 -0.0082 15.1199 14.0603 3.7556 0.0000 -42.4211
27.8439 82.2141 -96.4109 -30.9759 -85.2092 50.4375 0.0000 -0.0000 0.0000 3.4311 -15.3614 -4.5105 26.3476 -15.8696 -0.0000 46.5992 -27.0640 18.0904 -180.0000 76.7460 -180.0000 -3.3345 14.1878 -0.4151 -21.6191 13.7269 -0.0000 -46.2571 13.4914 29.0037 180.0000 -64.3040 180.0000 -4.0459 0.5903 -0.0186 -1.0364 6.1883 -12.9152 2.5485 1.2673 -40.9166 -0.0000 -0.0000 34.5806 0.0311 -4.4044 4.4018 -0.3387 -0.0000 -62.6341 4.3340 6.1729 -5.7146 -0.0000 -0.0000 57.1557 -0.0082 14.9438 13.1753 3.4813 0.0000 -41.4310
